<svg width="384" height="384" viewBox="0 0 384 384" fill="none" xmlns="http://www.w3.org/2000/svg">
<path d="M350 158H34V181H124C131 181 136 186 136 192C136 196 138 200 142 202C150 206 158 200 158 192C158 186 163 181 169 181H237C243 181 248 186 248 192V304C248 307.05 249.212 309.975 251.368 312.132C253.525 314.288 256.45 315.5 259.5 315.5C262.55 315.5 265.475 314.288 267.632 312.132C269.788 309.975 271 307.05 271 304V192C271 186 276 181 282 181H349V158H350Z" fill="black"/>
<path d="M293 271H349V293H293V271ZM361 124C361 56 305 0 237 0H147C79 0 23 56 23 124V136H361V124ZM102 91C98.95 91 96.0249 89.7884 93.8682 87.6317C91.7116 85.4751 90.5 82.55 90.5 79.5C90.5 76.45 91.7116 73.5249 93.8682 71.3683C96.0249 69.2116 98.95 68 102 68C105.05 68 107.975 69.2116 110.132 71.3683C112.288 73.5249 113.5 76.45 113.5 79.5C113.5 82.55 112.288 85.4751 110.132 87.6317C107.975 89.7884 105.05 91 102 91ZM147 68C144.083 68 141.285 66.8411 139.222 64.7782C137.159 62.7153 136 59.9174 136 57C136 54.0826 137.159 51.2847 139.222 49.2218C141.285 47.1589 144.083 46 147 46C149.917 46 152.715 47.1589 154.778 49.2218C156.841 51.2847 158 54.0826 158 57C158 59.9174 156.841 62.7153 154.778 64.7782C152.715 66.8411 149.917 68 147 68ZM192 91C188.95 91 186.025 89.7884 183.868 87.6317C181.712 85.4751 180.5 82.55 180.5 79.5C180.5 76.45 181.712 73.5249 183.868 71.3683C186.025 69.2116 188.95 68 192 68C195.05 68 197.975 69.2116 200.132 71.3683C202.288 73.5249 203.5 76.45 203.5 79.5C203.5 82.55 202.288 85.4751 200.132 87.6317C197.975 89.7884 195.05 91 192 91ZM237 68C234.083 68 231.285 66.8411 229.222 64.7782C227.159 62.7153 226 59.9174 226 57C226 54.0826 227.159 51.2847 229.222 49.2218C231.285 47.1589 234.083 46 237 46C243 46 248 51 248 57C248 63 243 68 237 68ZM282 91C278.95 91 276.025 89.7884 273.868 87.6317C271.712 85.4751 270.5 82.55 270.5 79.5C270.5 76.45 271.712 73.5249 273.868 71.3683C276.025 69.2116 278.95 68 282 68C285.05 68 287.975 69.2116 290.132 71.3683C292.288 73.5249 293.5 76.45 293.5 79.5C293.5 82.55 292.288 85.4751 290.132 87.6317C287.975 89.7884 285.05 91 282 91ZM34 293H226V271H34V293ZM260 338C245 338 232 329 228 316H23V328C23 359 48 384 79 384H304C335 384 361 359 361 328V316H291C287 329 274 338 260 338ZM226 203H179C176.634 209.591 172.29 215.29 166.562 219.319C160.835 223.349 154.003 225.511 147 225.511C139.997 225.511 133.165 223.349 127.438 219.319C121.71 215.29 117.366 209.591 115 203H23C17.8429 204.093 13.2179 206.925 9.89924 211.021C6.58057 215.117 4.76965 220.228 4.76965 225.5C4.76965 230.772 6.58057 235.883 9.89924 239.979C13.2179 244.075 17.8429 246.907 23 248H226V203ZM362 203H293V248H362C367.157 246.907 371.782 244.075 375.101 239.979C378.419 235.883 380.23 230.772 380.23 225.5C380.23 220.228 378.419 215.117 375.101 211.021C371.782 206.925 367.157 204.093 362 203Z" fill="black"/>
</svg>
